<svg width="72" height="73" viewBox="0 0 72 73" fill="none" xmlns="http://www.w3.org/2000/svg">
<g filter="url(#filter0_dd_324_2572)">
<rect x="12" y="2.5" width="48" height="48" rx="6" fill="white"/>
<path d="M24.1416 27.7391C24.2392 28.4852 24.6048 29.1703 25.1702 29.6666C25.7357 30.163 26.4624 30.4367 27.2148 30.4367C27.9672 30.4367 28.6939 30.163 29.2594 29.6666C29.8248 29.1703 30.1904 28.4852 30.288 27.7391H24.1416ZM40.8874 33.9787C40.8875 34.0417 40.8753 34.1042 40.8513 34.1626C40.8274 34.2209 40.7921 34.274 40.7476 34.3187C40.7031 34.3634 40.6503 34.3989 40.592 34.4232C40.5338 34.4474 40.4714 34.46 40.4083 34.4601H31.4534C31.1904 34.4601 30.9734 34.2441 30.9734 33.9787C30.9741 33.8519 31.025 33.7305 31.1149 33.6411C31.2049 33.5518 31.3266 33.5018 31.4534 33.502H40.4078C40.6728 33.502 40.8874 33.7151 40.8874 33.9787ZM31.0258 34.7054H40.8355V36.0911H31.0258V34.7054ZM41.712 27.7391C41.8089 28.4857 42.1742 29.1715 42.7397 29.6684C43.3051 30.1653 44.0322 30.4395 44.785 30.4396C45.5377 30.4396 46.2646 30.1655 46.8299 29.6685C47.3952 29.1715 47.7601 28.4857 47.8565 27.7391H41.712ZM47.6875 26.7748L45.1709 23.3083H46.5163C46.8437 23.3083 47.1072 23.0399 47.1072 22.7083C47.1072 22.3795 46.8432 22.114 46.5163 22.114H39.3893C39.1777 21.5313 38.8164 21.0145 38.3416 20.6158C37.8669 20.217 37.2955 19.9504 36.685 19.8427V17.9721C36.685 17.6395 36.4181 17.374 36.0874 17.374L36.0317 17.3803L35.976 17.374C35.8975 17.3738 35.8197 17.3892 35.7471 17.4192C35.6745 17.4492 35.6086 17.4933 35.5532 17.5489C35.4977 17.6045 35.4538 17.6705 35.424 17.7431C35.3941 17.8158 35.379 17.8936 35.3794 17.9721V19.8417C34.7689 19.9494 34.1976 20.216 33.723 20.6147C33.2484 21.0135 32.8873 21.5303 32.676 22.1131H25.5475C25.2226 22.1131 24.9576 22.3785 24.9576 22.7073C24.9576 23.0395 25.2226 23.3073 25.5475 23.3073H26.8315L24.3144 26.7739H24V27.4142H30.431V26.7739H30.1152L27.599 23.3083H33.4402C33.4402 23.1729 33.455 23.0399 33.4752 22.9127C33.4958 22.8527 33.5098 22.7918 33.5098 22.7289C33.618 22.2729 33.8497 21.8555 34.1795 21.5225C34.5093 21.1894 34.9244 20.9537 35.3794 20.8411V27.4156H35.3544C35.303 29.8886 34.1266 32.0452 32.3813 33.2572H39.684C37.9382 32.0452 36.7627 29.8886 36.7085 27.4156H36.6854V20.8411C37.1403 20.9537 37.5554 21.1895 37.8851 21.5225C38.2148 21.8555 38.4464 22.2729 38.5546 22.7289C38.5565 22.7918 38.5694 22.8527 38.5906 22.9127C38.6098 23.0404 38.6218 23.1729 38.6218 23.3083H44.4019L41.8848 26.7748H41.5709V27.4151H48V26.7748H47.6875ZM26.9592 26.7748H24.9504L26.9592 24.0076V26.7748ZM27.4733 26.7748V24.0076L29.4821 26.7748H27.4733ZM44.5286 26.7748H42.5189L44.5286 24.0076V26.7748ZM45.0403 26.7748V24.0076L47.0515 26.7748H45.0403ZM27.8117 21.2798C27.8073 21.435 27.7425 21.5824 27.6311 21.6907C27.5198 21.7989 27.3706 21.8595 27.2153 21.8595C27.06 21.8595 26.9108 21.7989 26.7994 21.6907C26.6881 21.5824 26.6233 21.435 26.6189 21.2798C26.6189 20.9505 26.8867 20.6817 27.2165 20.6817C27.5448 20.6812 27.8117 20.9505 27.8117 21.2798ZM45.3816 21.2481C45.3816 21.5798 45.1147 21.8428 44.7854 21.8428C44.7071 21.8433 44.6295 21.8283 44.557 21.7986C44.4846 21.7689 44.4187 21.7252 44.3633 21.6699C44.3078 21.6145 44.2639 21.5488 44.234 21.4764C44.2042 21.404 44.189 21.3264 44.1893 21.2481C44.1861 21.1678 44.1991 21.0877 44.2276 21.0125C44.2561 20.9374 44.2995 20.8688 44.3552 20.8108C44.4109 20.7529 44.4777 20.7068 44.5516 20.6753C44.6255 20.6438 44.7051 20.6275 44.7854 20.6275C44.8658 20.6275 44.9453 20.6438 45.0193 20.6753C45.0932 20.7068 45.16 20.7529 45.2157 20.8108C45.2714 20.8688 45.3148 20.9374 45.3433 21.0125C45.3718 21.0877 45.3848 21.1678 45.3816 21.2481Z" fill="#E4B44E"/>
</g>
<defs>
<filter id="filter0_dd_324_2572" x="0" y="0.5" width="72" height="72" filterUnits="userSpaceOnUse" color-interpolation-filters="sRGB">
<feFlood flood-opacity="0" result="BackgroundImageFix"/>
<feColorMatrix in="SourceAlpha" type="matrix" values="0 0 0 0 0 0 0 0 0 0 0 0 0 0 0 0 0 0 127 0" result="hardAlpha"/>
<feMorphology radius="2" operator="erode" in="SourceAlpha" result="effect1_dropShadow_324_2572"/>
<feOffset dy="4"/>
<feGaussianBlur stdDeviation="3"/>
<feColorMatrix type="matrix" values="0 0 0 0 0 0 0 0 0 0 0 0 0 0 0 0 0 0 0.05 0"/>
<feBlend mode="normal" in2="BackgroundImageFix" result="effect1_dropShadow_324_2572"/>
<feColorMatrix in="SourceAlpha" type="matrix" values="0 0 0 0 0 0 0 0 0 0 0 0 0 0 0 0 0 0 127 0" result="hardAlpha"/>
<feMorphology radius="3" operator="erode" in="SourceAlpha" result="effect2_dropShadow_324_2572"/>
<feOffset dy="10"/>
<feGaussianBlur stdDeviation="7.5"/>
<feColorMatrix type="matrix" values="0 0 0 0 0 0 0 0 0 0 0 0 0 0 0 0 0 0 0.1 0"/>
<feBlend mode="normal" in2="effect1_dropShadow_324_2572" result="effect2_dropShadow_324_2572"/>
<feBlend mode="normal" in="SourceGraphic" in2="effect2_dropShadow_324_2572" result="shape"/>
</filter>
</defs>
</svg>
