<svg width="72" height="72" viewBox="0 0 72 72" fill="none" xmlns="http://www.w3.org/2000/svg">
<g filter="url(#filter0_dd_579_195)">
<rect x="12" y="2" width="48" height="48" rx="6" fill="white"/>
<path d="M24.1416 27.2391C24.2392 27.9852 24.6048 28.6703 25.1702 29.1666C25.7357 29.663 26.4624 29.9367 27.2148 29.9367C27.9672 29.9367 28.6939 29.663 29.2594 29.1666C29.8248 28.6703 30.1904 27.9852 30.288 27.2391H24.1416ZM40.8874 33.4787C40.8875 33.5417 40.8753 33.6042 40.8513 33.6626C40.8274 33.7209 40.7921 33.774 40.7476 33.8187C40.7031 33.8634 40.6503 33.8989 40.592 33.9232C40.5338 33.9474 40.4714 33.96 40.4083 33.9601H31.4534C31.1904 33.9601 30.9734 33.7441 30.9734 33.4787C30.9741 33.3519 31.025 33.2305 31.1149 33.1411C31.2049 33.0518 31.3266 33.0018 31.4534 33.002H40.4078C40.6728 33.002 40.8874 33.2151 40.8874 33.4787ZM31.0258 34.2054H40.8355V35.5911H31.0258V34.2054ZM41.712 27.2391C41.8089 27.9857 42.1742 28.6715 42.7397 29.1684C43.3051 29.6653 44.0322 29.9395 44.785 29.9396C45.5377 29.9396 46.2646 29.6655 46.8299 29.1685C47.3952 28.6715 47.7601 27.9857 47.8565 27.2391H41.712ZM47.6875 26.2748L45.1709 22.8083H46.5163C46.8437 22.8083 47.1072 22.5399 47.1072 22.2083C47.1072 21.8795 46.8432 21.614 46.5163 21.614H39.3893C39.1777 21.0313 38.8164 20.5145 38.3416 20.1158C37.8669 19.717 37.2955 19.4504 36.685 19.3427V17.4721C36.685 17.1395 36.4181 16.874 36.0874 16.874L36.0317 16.8803L35.976 16.874C35.8975 16.8738 35.8197 16.8892 35.7471 16.9192C35.6745 16.9492 35.6086 16.9933 35.5532 17.0489C35.4977 17.1045 35.4538 17.1705 35.424 17.2431C35.3941 17.3158 35.379 17.3936 35.3794 17.4721V19.3417C34.7689 19.4494 34.1976 19.716 33.723 20.1147C33.2484 20.5135 32.8873 21.0303 32.676 21.6131H25.5475C25.2226 21.6131 24.9576 21.8785 24.9576 22.2073C24.9576 22.5395 25.2226 22.8073 25.5475 22.8073H26.8315L24.3144 26.2739H24V26.9142H30.431V26.2739H30.1152L27.599 22.8083H33.4402C33.4402 22.6729 33.455 22.5399 33.4752 22.4127C33.4958 22.3527 33.5098 22.2918 33.5098 22.2289C33.618 21.7729 33.8497 21.3555 34.1795 21.0225C34.5093 20.6894 34.9244 20.4537 35.3794 20.3411V26.9156H35.3544C35.303 29.3886 34.1266 31.5452 32.3813 32.7572H39.684C37.9382 31.5452 36.7627 29.3886 36.7085 26.9156H36.6854V20.3411C37.1403 20.4537 37.5554 20.6895 37.8851 21.0225C38.2148 21.3555 38.4464 21.7729 38.5546 22.2289C38.5565 22.2918 38.5694 22.3527 38.5906 22.4127C38.6098 22.5404 38.6218 22.6729 38.6218 22.8083H44.4019L41.8848 26.2748H41.5709V26.9151H48V26.2748H47.6875ZM26.9592 26.2748H24.9504L26.9592 23.5076V26.2748ZM27.4733 26.2748V23.5076L29.4821 26.2748H27.4733ZM44.5286 26.2748H42.5189L44.5286 23.5076V26.2748ZM45.0403 26.2748V23.5076L47.0515 26.2748H45.0403ZM27.8117 20.7798C27.8073 20.935 27.7425 21.0824 27.6311 21.1907C27.5198 21.2989 27.3706 21.3595 27.2153 21.3595C27.06 21.3595 26.9108 21.2989 26.7994 21.1907C26.6881 21.0824 26.6233 20.935 26.6189 20.7798C26.6189 20.4505 26.8867 20.1817 27.2165 20.1817C27.5448 20.1812 27.8117 20.4505 27.8117 20.7798ZM45.3816 20.7481C45.3816 21.0798 45.1147 21.3428 44.7854 21.3428C44.7071 21.3433 44.6295 21.3283 44.557 21.2986C44.4846 21.2689 44.4187 21.2252 44.3633 21.1699C44.3078 21.1145 44.2639 21.0488 44.234 20.9764C44.2042 20.904 44.189 20.8264 44.1893 20.7481C44.1861 20.6678 44.1991 20.5877 44.2276 20.5125C44.2561 20.4374 44.2995 20.3688 44.3552 20.3108C44.4109 20.2529 44.4777 20.2068 44.5516 20.1753C44.6255 20.1438 44.7051 20.1275 44.7854 20.1275C44.8658 20.1275 44.9453 20.1438 45.0193 20.1753C45.0932 20.2068 45.16 20.2529 45.2157 20.3108C45.2714 20.3688 45.3148 20.4374 45.3433 20.5125C45.3718 20.5877 45.3848 20.6678 45.3816 20.7481Z" fill="#E4B44E"/>
</g>
<defs>
<filter id="filter0_dd_579_195" x="0" y="0" width="72" height="72" filterUnits="userSpaceOnUse" color-interpolation-filters="sRGB">
<feFlood flood-opacity="0" result="BackgroundImageFix"/>
<feColorMatrix in="SourceAlpha" type="matrix" values="0 0 0 0 0 0 0 0 0 0 0 0 0 0 0 0 0 0 127 0" result="hardAlpha"/>
<feMorphology radius="2" operator="erode" in="SourceAlpha" result="effect1_dropShadow_579_195"/>
<feOffset dy="4"/>
<feGaussianBlur stdDeviation="3"/>
<feColorMatrix type="matrix" values="0 0 0 0 0 0 0 0 0 0 0 0 0 0 0 0 0 0 0.05 0"/>
<feBlend mode="normal" in2="BackgroundImageFix" result="effect1_dropShadow_579_195"/>
<feColorMatrix in="SourceAlpha" type="matrix" values="0 0 0 0 0 0 0 0 0 0 0 0 0 0 0 0 0 0 127 0" result="hardAlpha"/>
<feMorphology radius="3" operator="erode" in="SourceAlpha" result="effect2_dropShadow_579_195"/>
<feOffset dy="10"/>
<feGaussianBlur stdDeviation="7.5"/>
<feColorMatrix type="matrix" values="0 0 0 0 0 0 0 0 0 0 0 0 0 0 0 0 0 0 0.1 0"/>
<feBlend mode="normal" in2="effect1_dropShadow_579_195" result="effect2_dropShadow_579_195"/>
<feBlend mode="normal" in="SourceGraphic" in2="effect2_dropShadow_579_195" result="shape"/>
</filter>
</defs>
</svg>
